<?xml version="1.0" encoding="UTF-8" standalone="no"?>
<!-- Created with Inkscape (http://www.inkscape.org/) -->

<svg
   width="48"
   height="48"
   viewBox="0 0 12.699999 12.7"
   version="1.1"
   id="svg5"
   inkscape:version="1.2.2 (b0a8486541, 2022-12-01)"
   sodipodi:docname="boolean.svg"
   xmlns:inkscape="http://www.inkscape.org/namespaces/inkscape"
   xmlns:sodipodi="http://sodipodi.sourceforge.net/DTD/sodipodi-0.dtd"
   xmlns="http://www.w3.org/2000/svg"
   xmlns:svg="http://www.w3.org/2000/svg">
  <sodipodi:namedview
     id="namedview7"
     pagecolor="#ffffff"
     bordercolor="#999999"
     borderopacity="1"
     inkscape:showpageshadow="0"
     inkscape:pageopacity="0"
     inkscape:pagecheckerboard="0"
     inkscape:deskcolor="#d1d1d1"
     inkscape:document-units="px"
     showgrid="false"
     inkscape:zoom="3.0523986"
     inkscape:cx="-46.029375"
     inkscape:cy="14.742504"
     inkscape:window-width="1366"
     inkscape:window-height="695"
     inkscape:window-x="0"
     inkscape:window-y="0"
     inkscape:window-maximized="1"
     inkscape:current-layer="layer1" />
  <defs
     id="defs2" />
  <g
     inkscape:label="Layer 1"
     inkscape:groupmode="layer"
     id="layer1"
     transform="translate(-74.494017,-125.99298)">
    <circle
       style="fill:none;stroke:#009c4c;stroke-width:0.665001;stroke-opacity:1"
       id="path788"
       cx="77.736931"
       cy="128.97131"
       r="2.6458333" />
    <path
       sodipodi:type="star"
       style="fill:none;stroke:#d70000;stroke-width:1.52825;stroke-dasharray:none;stroke-opacity:1"
       id="path2194"
       inkscape:flatsided="false"
       sodipodi:sides="4"
       sodipodi:cx="107.98482"
       sodipodi:cy="129.78088"
       sodipodi:r1="8.8485985"
       sodipodi:r2="0.088485986"
       sodipodi:arg1="0.9135737"
       sodipodi:arg2="1.6989719"
       inkscape:rounded="0.03"
       inkscape:randomized="0"
       d="m 113.39061,136.78625 c -0.20868,0.16103 -5.15568,-6.88391 -5.4171,-6.91761 -0.26143,-0.0337 -6.83303,5.52671 -6.99406,5.31803 -0.16103,-0.20868 6.88391,-5.15567 6.91761,-5.4171 0.0337,-0.26142 -5.52671,-6.83302 -5.31803,-6.99405 0.20868,-0.16103 5.15567,6.88391 5.4171,6.9176 0.26142,0.0337 6.83302,-5.52671 6.99405,-5.31803 0.16103,0.20868 -6.88391,5.15568 -6.9176,5.4171 -0.0337,0.26143 5.52671,6.83303 5.31803,6.99406 z"
       inkscape:transform-center-x="0.065600439"
       inkscape:transform-center-y="-0.29435373"
       transform="matrix(0.36236653,-0.04715602,0.04803998,0.38737692,38.778576,90.636793)" />
    <path
       style="fill:none;stroke:#000000;stroke-width:0.565;stroke-dasharray:none;stroke-opacity:1"
       d="m 75.823679,136.74991 c 9.253866,-8.81898 9.253866,-8.81898 9.253866,-8.81898 v 0 0"
       id="path2358" />
  </g>
</svg>
