<?xml version="1.0" encoding="UTF-8" standalone="no"?>
<!-- Created with Inkscape (http://www.inkscape.org/) -->

<svg
   width="48"
   height="48"
   viewBox="0 0 12.699999 12.7"
   version="1.1"
   id="svg5"
   inkscape:version="1.3 (0e150ed6c4, 2023-07-21)"
   sodipodi:docname="help.svg"
   xmlns:inkscape="http://www.inkscape.org/namespaces/inkscape"
   xmlns:sodipodi="http://sodipodi.sourceforge.net/DTD/sodipodi-0.dtd"
   xmlns="http://www.w3.org/2000/svg"
   xmlns:svg="http://www.w3.org/2000/svg">
  <sodipodi:namedview
     id="namedview7"
     pagecolor="#ffffff"
     bordercolor="#999999"
     borderopacity="1"
     inkscape:showpageshadow="0"
     inkscape:pageopacity="0"
     inkscape:pagecheckerboard="0"
     inkscape:deskcolor="#d1d1d1"
     inkscape:document-units="px"
     showgrid="false"
     inkscape:zoom="5.1881193"
     inkscape:cx="-10.312022"
     inkscape:cy="25.346372"
     inkscape:window-width="1366"
     inkscape:window-height="697"
     inkscape:window-x="-8"
     inkscape:window-y="-8"
     inkscape:window-maximized="1"
     inkscape:current-layer="layer1" />
  <defs
     id="defs2">
    <rect
       x="26.98473"
       y="25.828242"
       width="11.564884"
       height="16.769082"
       id="rect3" />
    <rect
       x="18.436949"
       y="11.850312"
       width="28.95544"
       height="20.76327"
       id="rect3711" />
    <rect
       x="18.436949"
       y="11.850312"
       width="28.955441"
       height="20.763269"
       id="rect3711-5" />
  </defs>
  <g
     inkscape:label="Layer 1"
     inkscape:groupmode="layer"
     id="layer1"
     transform="translate(-74.494017,-125.99298)">
    <path
       id="rect1"
       style="fill:#f1f0ef;fill-opacity:1;stroke:#1b1509;stroke-width:0.26458332;stroke-dasharray:none;stroke-opacity:1"
       d="m 78.314585,126.718 0.0186,0.0186 -1.467611,1.44746 v 9.86141 h 8.0269 V 126.718 Z" />
    <path
       id="rect2-0-4"
       style="fill:#f1f0ef;fill-opacity:1;stroke:#1b1509;stroke-width:0.26458332;stroke-dasharray:none;stroke-opacity:1"
       d="m 78.344022,128.21449 -4e-6,-1.50793 -1.486212,1.46555 0.04188,0.0424 z" />
    <rect
       style="fill:#271e0e;fill-opacity:1;stroke:#2a210f;stroke-width:0.105833;stroke-dasharray:none;stroke-opacity:1"
       id="rect2"
       width="6.4257402"
       height="0.10199586"
       x="77.706879"
       y="129.81783" />
    <rect
       style="fill:#271e0e;fill-opacity:1;stroke:#2a210f;stroke-width:0.105833;stroke-dasharray:none;stroke-opacity:1"
       id="rect2-4"
       width="6.4257402"
       height="0.10199586"
       x="77.706848"
       y="130.77002" />
    <rect
       style="fill:#271e0e;fill-opacity:1;stroke:#2a210f;stroke-width:0.105833;stroke-dasharray:none;stroke-opacity:1"
       id="rect2-4-9"
       width="6.4257402"
       height="0.10199586"
       x="77.706848"
       y="131.68495" />
    <rect
       style="fill:#271e0e;fill-opacity:1;stroke:#2a210f;stroke-width:0.0751766;stroke-dasharray:none;stroke-opacity:1"
       id="rect2-5"
       width="3.1925447"
       height="0.10358379"
       x="77.691536"
       y="132.80774" />
    <rect
       style="fill:#271e0e;fill-opacity:1;stroke:#2a210f;stroke-width:0.0751766;stroke-dasharray:none;stroke-opacity:1"
       id="rect2-4-4"
       width="3.1925447"
       height="0.10358379"
       x="77.691521"
       y="133.77477" />
    <rect
       style="fill:#271e0e;fill-opacity:1;stroke:#2a210f;stroke-width:0.0751766;stroke-dasharray:none;stroke-opacity:1"
       id="rect2-4-9-9"
       width="3.1925447"
       height="0.10358379"
       x="77.691521"
       y="134.70393" />
    <path
       style="white-space:pre;fill:#6ba0ca;fill-opacity:1;stroke:#2e6481;stroke-width:0.182073;stroke-opacity:1"
       d="m 84.020522,134.39759 q 0,0.25559 -0.09546,0.45641 -0.09546,0.19821 -0.250928,0.35208 -0.152738,0.14866 -0.351844,0.27906 -0.199105,0.1304 -0.422758,0.25298 v 0.5868 h -0.488218 v -0.79544 q 0.177286,-0.0965 0.381846,-0.21125 0.207289,-0.11476 0.338207,-0.23212 0.158193,-0.13562 0.245473,-0.27906 0.08728,-0.14605 0.08728,-0.37034 0,-0.2947 -0.210016,-0.43814 -0.207288,-0.14605 -0.537312,-0.14605 -0.294567,0 -0.559132,0.0887 -0.261837,0.0887 -0.414576,0.17995 h -0.02728 v -0.53203 q 0.190923,-0.0704 0.482763,-0.12519 0.294567,-0.0574 0.556405,-0.0574 0.586406,0 0.924613,0.27385 0.340935,0.27123 0.340935,0.7172 z m -1.077352,2.97054 h -0.556405 v -0.55029 h 0.556405 z"
       id="text2"
       aria-label="?" />
  </g>
</svg>
