<?xml version="1.0" encoding="UTF-8" standalone="no"?>
<!-- Created with Inkscape (http://www.inkscape.org/) -->

<svg
   width="48"
   height="48"
   viewBox="0 0 12.699999 12.7"
   version="1.1"
   id="svg5"
   inkscape:version="1.2.2 (b0a8486541, 2022-12-01)"
   sodipodi:docname="settings.svg"
   xmlns:inkscape="http://www.inkscape.org/namespaces/inkscape"
   xmlns:sodipodi="http://sodipodi.sourceforge.net/DTD/sodipodi-0.dtd"
   xmlns="http://www.w3.org/2000/svg"
   xmlns:svg="http://www.w3.org/2000/svg">
  <sodipodi:namedview
     id="namedview7"
     pagecolor="#ffffff"
     bordercolor="#999999"
     borderopacity="1"
     inkscape:showpageshadow="0"
     inkscape:pageopacity="0"
     inkscape:pagecheckerboard="0"
     inkscape:deskcolor="#d1d1d1"
     inkscape:document-units="px"
     showgrid="false"
     inkscape:zoom="12.104266"
     inkscape:cx="21.438723"
     inkscape:cy="15.862176"
     inkscape:window-width="1920"
     inkscape:window-height="1011"
     inkscape:window-x="0"
     inkscape:window-y="32"
     inkscape:window-maximized="1"
     inkscape:current-layer="layer1" />
  <defs
     id="defs2">
    <rect
       x="26.98473"
       y="25.828242"
       width="11.564884"
       height="16.769082"
       id="rect3" />
    <rect
       x="18.436949"
       y="11.850312"
       width="28.95544"
       height="20.76327"
       id="rect3711" />
    <rect
       x="18.436949"
       y="11.850312"
       width="28.955441"
       height="20.763269"
       id="rect3711-5" />
  </defs>
  <g
     inkscape:label="Layer 1"
     inkscape:groupmode="layer"
     id="layer1"
     transform="translate(-74.494017,-125.99298)">
    <path
       id="rect2-0-4"
       style="fill:#f6e1bb;fill-opacity:1;stroke:#1b1509;stroke-width:0.24828;stroke-dasharray:none;stroke-opacity:1"
       d="m 79.343432,128.76413 -3e-6,-1.42702 -1.382906,1.38692 0.03897,0.0401 z" />
    <rect
       style="fill:#2a210f;fill-opacity:1;stroke:#2a210f;stroke-width:0.0701545;stroke-dasharray:none;stroke-opacity:1"
       id="rect2-4-9"
       width="2.286927"
       height="0.125928"
       x="78.736092"
       y="131.53293" />
    <path
       id="rect1-2"
       style="fill:#ebf8fb;fill-opacity:1;stroke:#1b1509;stroke-width:0.24828;stroke-dasharray:none;stroke-opacity:1"
       d="m 76.912686,126.4657 0.01731,0.0176 -1.365598,1.3698 v 9.33228 h 7.46895 V 126.4657 Z" />
    <path
       id="rect2-0-4-7"
       style="fill:#d8f1f7;fill-opacity:1;stroke:#1b1509;stroke-width:0.24828;stroke-dasharray:none;stroke-opacity:1"
       d="m 76.940077,127.88189 -3e-6,-1.42702 -1.382906,1.38692 0.03897,0.0401 z" />
    <rect
       style="fill:#2a210f;fill-opacity:1;stroke:#2a210f;stroke-width:0.0993119;stroke-dasharray:none;stroke-opacity:1"
       id="rect2-5"
       width="5.9790864"
       height="0.096523188"
       x="76.347221"
       y="128.89844" />
    <rect
       style="fill:#2a210f;fill-opacity:1;stroke:#2a210f;stroke-width:0.0993119;stroke-dasharray:none;stroke-opacity:1"
       id="rect2-4-95"
       width="5.9790864"
       height="0.096523188"
       x="76.347191"
       y="129.79956" />
    <rect
       style="fill:#2a210f;fill-opacity:1;stroke:#2a210f;stroke-width:0.0703651;stroke-dasharray:none;stroke-opacity:1"
       id="rect2-4-9-5"
       width="2.286927"
       height="0.125928"
       x="76.332741"
       y="130.65068" />
    <rect
       style="fill:#2a210f;fill-opacity:1;stroke:#2a210f;stroke-width:0.0993119;stroke-dasharray:none;stroke-opacity:1"
       id="rect2-3-3"
       width="5.9790864"
       height="0.096523188"
       x="76.368774"
       y="131.94456" />
    <rect
       style="fill:#2a210f;fill-opacity:1;stroke:#2a210f;stroke-width:0.0993119;stroke-dasharray:none;stroke-opacity:1"
       id="rect2-4-99-1"
       width="5.9790864"
       height="0.096523188"
       x="76.368744"
       y="132.84566" />
    <rect
       style="fill:#2a210f;fill-opacity:1;stroke:#2a210f;stroke-width:0.0937565;stroke-dasharray:none;stroke-opacity:1"
       id="rect2-4-9-2-1"
       width="4.9925876"
       height="0.10240875"
       x="76.365852"
       y="133.70856" />
    <rect
       style="fill:#2a210f;fill-opacity:1;stroke:#2a210f;stroke-width:0.0993119;stroke-dasharray:none;stroke-opacity:1"
       id="rect2-3-2-3"
       width="5.9790864"
       height="0.096523188"
       x="76.426559"
       y="135.09352" />
    <rect
       style="fill:#2a210f;fill-opacity:1;stroke:#2a210f;stroke-width:0.0967727;stroke-dasharray:none;stroke-opacity:1"
       id="rect2-4-99-6-5"
       width="5.5305648"
       height="0.099083699"
       x="76.425278"
       y="135.99333" />
    <path
       id="path3612-6"
       style="fill:#b9b9b9;fill-opacity:1;stroke:#000000;stroke-width:0.385233;stroke-linecap:square;stroke-dasharray:none;stroke-opacity:1"
       d="m 82.107771,129.49601 a 3.9687498,3.9687498 0 0 0 -0.79375,0.0827 v 0.52916 a 3.4395833,3.4395833 0 0 0 -1.018026,0.42478 l -0.393257,-0.39325 a 3.9687498,3.9687498 0 0 0 -0.619601,0.50332 3.9687498,3.9687498 0 0 0 -0.502811,0.6196 l 0.395841,0.39585 a 3.4395833,3.4395833 0 0 0 -0.409277,0.9834 h -0.547254 a 3.9687498,3.9687498 0 0 0 -0.08217,0.79375 3.9687498,3.9687498 0 0 0 0.08217,0.79375 h 0.537435 a 3.4395833,3.4395833 0 0 0 0.419613,1.02009 l -0.398942,0.39894 a 3.9687498,3.9687498 0 0 0 0.502811,0.6196 3.9687498,3.9687498 0 0 0 0.619601,0.50282 l 0.395841,-0.39585 a 3.4395833,3.4395833 0 0 0 1.018026,0.42427 v 0.55242 a 3.9687498,3.9687498 0 0 0 0.79375,0.0822 3.9687498,3.9687498 0 0 0 0.79375,-0.0822 v -0.55242 a 3.4395833,3.4395833 0 0 0 1.000972,-0.41445 l 0.375688,0.37569 a 3.9687498,3.9687498 0 0 0 0.617533,-0.50488 3.9687498,3.9687498 0 0 0 0.502812,-0.6196 l -0.370003,-0.37 a 3.4395833,3.4395833 0 0 0 0.429948,-1.03663 h 0.536401 a 3.9687498,3.9687498 0 0 0 0.0801,-0.79375 3.9687498,3.9687498 0 0 0 -0.08268,-0.79375 H 85.44969 a 3.4395833,3.4395833 0 0 0 -0.419613,-1.00097 l 0.367936,-0.36794 a 3.9687498,3.9687498 0 0 0 -0.504879,-0.61805 3.9687498,3.9687498 0 0 0 -0.6196,-0.5023 l -0.36897,0.36897 a 3.4395833,3.4395833 0 0 0 -1.003039,-0.41444 v -0.53072 a 3.9687498,3.9687498 0 0 0 -0.79375,-0.0801 z m 0,2.1053 a 1.8520832,1.8520832 0 0 1 1.852083,1.85209 1.8520832,1.8520832 0 0 1 -1.852083,1.85208 1.8520832,1.8520832 0 0 1 -1.852083,-1.85208 1.8520832,1.8520832 0 0 1 1.852083,-1.85209 z" />
    <path
       id="path3612-6-6"
       style="fill:#b9b9b9;fill-opacity:1;stroke:#000000;stroke-width:0.304871;stroke-linecap:square;stroke-dasharray:none;stroke-opacity:1"
       d="m 83.820734,132.25569 a 3.28294,3.0048971 0 0 0 -0.656588,0.0626 v 0.40065 a 2.8452148,2.6042442 0 0 0 -0.842108,0.32162 l -0.325302,-0.29775 a 3.28294,3.0048971 0 0 0 -0.512532,0.38109 3.28294,3.0048971 0 0 0 -0.415924,0.46912 l 0.327439,0.29972 a 2.8452148,2.6042442 0 0 0 -0.338553,0.74457 h -0.452687 a 3.28294,3.0048971 0 0 0 -0.06797,0.60098 3.28294,3.0048971 0 0 0 0.06797,0.60098 h 0.444565 a 2.8452148,2.6042442 0 0 0 0.347102,0.77235 l -0.330003,0.30205 a 3.28294,3.0048971 0 0 0 0.415924,0.46912 3.28294,3.0048971 0 0 0 0.512532,0.38071 l 0.327439,-0.29972 a 2.8452148,2.6042442 0 0 0 0.842108,0.32124 v 0.41825 a 3.28294,3.0048971 0 0 0 0.656588,0.0622 3.28294,3.0048971 0 0 0 0.656588,-0.0622 v -0.41825 a 2.8452148,2.6042442 0 0 0 0.828002,-0.3138 l 0.310768,0.28445 a 3.28294,3.0048971 0 0 0 0.510822,-0.38227 3.28294,3.0048971 0 0 0 0.415925,-0.46912 l -0.306066,-0.28014 a 2.8452148,2.6042442 0 0 0 0.355652,-0.78487 h 0.44371 a 3.28294,3.0048971 0 0 0 0.06626,-0.60098 3.28294,3.0048971 0 0 0 -0.06839,-0.60098 h -0.448839 a 2.8452148,2.6042442 0 0 0 -0.347102,-0.75788 l 0.304355,-0.27858 a 3.28294,3.0048971 0 0 0 -0.417634,-0.46795 3.28294,3.0048971 0 0 0 -0.512532,-0.38031 l -0.305211,0.27936 a 2.8452148,2.6042442 0 0 0 -0.829711,-0.31379 v -0.40183 a 3.28294,3.0048971 0 0 0 -0.656588,-0.0606 z m 0,1.594 a 1.5320386,1.4022853 0 0 1 1.532039,1.40229 1.5320386,1.4022853 0 0 1 -1.532039,1.40229 1.5320386,1.4022853 0 0 1 -1.532038,-1.40229 1.5320386,1.4022853 0 0 1 1.532038,-1.40229 z" />
  </g>
</svg>
